<svg xmlns="http://www.w3.org/2000/svg" width="248" height="248" xmlns:xlink="http://www.w3.org/1999/xlink"><rect x="0" y="0" width="248" height="248" fill="#ffffff"></rect><rect x="7.3037" y="71" width="220" height="132" fill="#ffffff" stroke="#000000" stroke-width="3" stroke-linecap="round" stroke-linejoin="round"></rect><line x1="7.3037" y1="178" x2="227.3037" y2="178.7865" fill-opacity="0" fill="#ffffff" stroke="#004884" stroke-width="3"></line><line x1="7.3037" y1="153" x2="227.3037" y2="153.7865" fill-opacity="0" fill="#ffffff" stroke="#004884" stroke-width="3"></line><line x1="7.3037" y1="103" x2="227.3037" y2="103.7865" fill-opacity="0" fill="#ffffff" stroke="#a70058" stroke-width="4"></line><line x1="7.3037" y1="128" x2="227.3037" y2="128.7865" fill-opacity="0" fill="#ffffff" stroke="#004884" stroke-width="3"></line><rect x="7.3037" y="71" width="220" height="132" fill-opacity="0" fill="#ffffff" stroke="#000000" stroke-width="3" stroke-linecap="round" stroke-linejoin="round"></rect><rect x="13" y="65" width="220" height="132" fill="#ffffff" stroke="#000000" stroke-width="3" stroke-linecap="round" stroke-linejoin="round"></rect><line x1="13" y1="172" x2="233" y2="172.7865" fill-opacity="0" fill="#ffffff" stroke="#004884" stroke-width="3"></line><line x1="13" y1="147" x2="233" y2="147.7865" fill-opacity="0" fill="#ffffff" stroke="#004884" stroke-width="3"></line><line x1="13" y1="97" x2="233" y2="97.7865" fill-opacity="0" fill="#ffffff" stroke="#a70058" stroke-width="4"></line><line x1="13" y1="122" x2="233" y2="122.7865" fill-opacity="0" fill="#ffffff" stroke="#004884" stroke-width="3"></line><rect x="13" y="65" width="220" height="132" fill-opacity="0" fill="#ffffff" stroke="#000000" stroke-width="3" stroke-linecap="round" stroke-linejoin="round"></rect><rect x="19" y="58" width="220" height="132" fill="#ffffff" stroke="#000000" stroke-width="3" stroke-linecap="round" stroke-linejoin="round"></rect><line x1="19" y1="165" x2="239" y2="165.7865" fill-opacity="0" fill="#ffffff" stroke="#004884" stroke-width="3"></line><line x1="19" y1="140" x2="239" y2="140.7865" fill-opacity="0" fill="#ffffff" stroke="#004884" stroke-width="3"></line><line x1="19" y1="90" x2="239" y2="90.7865" fill-opacity="0" fill="#ffffff" stroke="#a70058" stroke-width="4"></line><line x1="19" y1="115" x2="239" y2="115.7865" fill-opacity="0" fill="#ffffff" stroke="#004884" stroke-width="3"></line><rect x="19" y="58" width="220" height="132" fill-opacity="0" fill="#ffffff" stroke="#000000" stroke-width="3" stroke-linecap="round" stroke-linejoin="round"></rect></svg>